<svg id="visual" viewBox="0 0 900 300" width="900" height="300" xmlns="http://www.w3.org/2000/svg" xmlns:xlink="http://www.w3.org/1999/xlink" version="1.1"><rect x="0" y="0" width="900" height="300" fill="#001220"></rect><path d="M0 176L15 167.2C30 158.3 60 140.7 90 131.8C120 123 150 123 180 123.7C210 124.3 240 125.7 270 129.2C300 132.7 330 138.3 360 137.5C390 136.7 420 129.3 450 132.8C480 136.3 510 150.7 540 157.8C570 165 600 165 630 161.2C660 157.3 690 149.7 720 150.3C750 151 780 160 810 162.5C840 165 870 161 885 159L900 157L900 0L885 0C870 0 840 0 810 0C780 0 750 0 720 0C690 0 660 0 630 0C600 0 570 0 540 0C510 0 480 0 450 0C420 0 390 0 360 0C330 0 300 0 270 0C240 0 210 0 180 0C150 0 120 0 90 0C60 0 30 0 15 0L0 0Z" fill="#fa7268"></path><path d="M0 101L15 111.8C30 122.7 60 144.3 90 151.3C120 158.3 150 150.7 180 143.8C210 137 240 131 270 124.3C300 117.7 330 110.3 360 111.2C390 112 420 121 450 120.7C480 120.3 510 110.7 540 109.5C570 108.3 600 115.7 630 123.8C660 132 690 141 720 138.2C750 135.3 780 120.7 810 122C840 123.3 870 140.7 885 149.3L900 158L900 0L885 0C870 0 840 0 810 0C780 0 750 0 720 0C690 0 660 0 630 0C600 0 570 0 540 0C510 0 480 0 450 0C420 0 390 0 360 0C330 0 300 0 270 0C240 0 210 0 180 0C150 0 120 0 90 0C60 0 30 0 15 0L0 0Z" fill="#f36567"></path><path d="M0 132L15 124C30 116 60 100 90 93.2C120 86.3 150 88.7 180 97.8C210 107 240 123 270 129.8C300 136.7 330 134.3 360 129.5C390 124.7 420 117.3 450 115.2C480 113 510 116 540 117.7C570 119.3 600 119.7 630 118.8C660 118 690 116 720 114.7C750 113.3 780 112.7 810 113.2C840 113.7 870 115.3 885 116.2L900 117L900 0L885 0C870 0 840 0 810 0C780 0 750 0 720 0C690 0 660 0 630 0C600 0 570 0 540 0C510 0 480 0 450 0C420 0 390 0 360 0C330 0 300 0 270 0C240 0 210 0 180 0C150 0 120 0 90 0C60 0 30 0 15 0L0 0Z" fill="#eb5967"></path><path d="M0 77L15 78.5C30 80 60 83 90 82.7C120 82.3 150 78.7 180 81.7C210 84.7 240 94.3 270 98.2C300 102 330 100 360 97.5C390 95 420 92 450 95.3C480 98.7 510 108.3 540 112.8C570 117.3 600 116.7 630 116.8C660 117 690 118 720 117.5C750 117 780 115 810 113.5C840 112 870 111 885 110.5L900 110L900 0L885 0C870 0 840 0 810 0C780 0 750 0 720 0C690 0 660 0 630 0C600 0 570 0 540 0C510 0 480 0 450 0C420 0 390 0 360 0C330 0 300 0 270 0C240 0 210 0 180 0C150 0 120 0 90 0C60 0 30 0 15 0L0 0Z" fill="#e34c67"></path><path d="M0 51L15 53.7C30 56.3 60 61.7 90 64.2C120 66.7 150 66.3 180 64.3C210 62.3 240 58.7 270 62.3C300 66 330 77 360 83.5C390 90 420 92 450 90.5C480 89 510 84 540 81.5C570 79 600 79 630 77.7C660 76.3 690 73.7 720 71.5C750 69.3 780 67.7 810 66.8C840 66 870 66 885 66L900 66L900 0L885 0C870 0 840 0 810 0C780 0 750 0 720 0C690 0 660 0 630 0C600 0 570 0 540 0C510 0 480 0 450 0C420 0 390 0 360 0C330 0 300 0 270 0C240 0 210 0 180 0C150 0 120 0 90 0C60 0 30 0 15 0L0 0Z" fill="#da3f67"></path><path d="M0 62L15 62.2C30 62.3 60 62.7 90 60.7C120 58.7 150 54.3 180 51.8C210 49.3 240 48.7 270 49.7C300 50.7 330 53.3 360 54.7C390 56 420 56 450 55C480 54 510 52 540 53.5C570 55 600 60 630 63.2C660 66.3 690 67.7 720 63.3C750 59 780 49 810 45.7C840 42.3 870 45.7 885 47.3L900 49L900 0L885 0C870 0 840 0 810 0C780 0 750 0 720 0C690 0 660 0 630 0C600 0 570 0 540 0C510 0 480 0 450 0C420 0 390 0 360 0C330 0 300 0 270 0C240 0 210 0 180 0C150 0 120 0 90 0C60 0 30 0 15 0L0 0Z" fill="#d03267"></path><path d="M0 23L15 24.7C30 26.3 60 29.7 90 33C120 36.3 150 39.7 180 38.3C210 37 240 31 270 27.7C300 24.3 330 23.7 360 26.8C390 30 420 37 450 40.2C480 43.3 510 42.7 540 41.2C570 39.7 600 37.3 630 37.2C660 37 690 39 720 40C750 41 780 41 810 36.7C840 32.3 870 23.7 885 19.3L900 15L900 0L885 0C870 0 840 0 810 0C780 0 750 0 720 0C690 0 660 0 630 0C600 0 570 0 540 0C510 0 480 0 450 0C420 0 390 0 360 0C330 0 300 0 270 0C240 0 210 0 180 0C150 0 120 0 90 0C60 0 30 0 15 0L0 0Z" fill="#c62368"></path></svg>