<svg id="visual" viewBox="0 0 960 540" width="960" height="540" xmlns="http://www.w3.org/2000/svg" xmlns:xlink="http://www.w3.org/1999/xlink" version="1.1"><path d="M0 98L14.5 105.2C29 112.3 58 126.7 87.2 129.3C116.3 132 145.7 123 174.8 108.7C204 94.3 233 74.7 262 66.7C291 58.7 320 62.3 349 69.5C378 76.7 407 87.3 436.2 84.7C465.3 82 494.7 66 523.8 62.5C553 59 582 68 611 78.7C640 89.3 669 101.7 698 99.8C727 98 756 82 785.2 75.8C814.3 69.7 843.7 73.3 872.8 82.3C902 91.3 931 105.7 945.5 112.8L960 120L960 0L945.5 0C931 0 902 0 872.8 0C843.7 0 814.3 0 785.2 0C756 0 727 0 698 0C669 0 640 0 611 0C582 0 553 0 523.8 0C494.7 0 465.3 0 436.2 0C407 0 378 0 349 0C320 0 291 0 262 0C233 0 204 0 174.8 0C145.7 0 116.3 0 87.2 0C58 0 29 0 14.5 0L0 0Z" fill="#6198ff"></path><path d="M0 163L14.5 177.3C29 191.7 58 220.3 87.2 229.3C116.3 238.3 145.7 227.7 174.8 213.3C204 199 233 181 262 163C291 145 320 127 349 124.3C378 121.7 407 134.3 436.2 138.8C465.3 143.3 494.7 139.7 523.8 145C553 150.3 582 164.7 611 177.3C640 190 669 201 698 198.3C727 195.7 756 179.3 785.2 171.2C814.3 163 843.7 163 872.8 167.5C902 172 931 181 945.5 185.5L960 190L960 118L945.5 110.8C931 103.7 902 89.3 872.8 80.3C843.7 71.3 814.3 67.7 785.2 73.8C756 80 727 96 698 97.8C669 99.7 640 87.3 611 76.7C582 66 553 57 523.8 60.5C494.7 64 465.3 80 436.2 82.7C407 85.3 378 74.7 349 67.5C320 60.3 291 56.7 262 64.7C233 72.7 204 92.3 174.8 106.7C145.7 121 116.3 130 87.2 127.3C58 124.7 29 110.3 14.5 103.2L0 96Z" fill="#3c80ff"></path><path d="M0 401L14.5 401C29 401 58 401 87.2 394.7C116.3 388.3 145.7 375.7 174.8 363C204 350.3 233 337.7 262 323.2C291 308.7 320 292.3 349 296.8C378 301.3 407 326.7 436.2 325.8C465.3 325 494.7 298 523.8 293.5C553 289 582 307 611 324.2C640 341.3 669 357.7 698 351.3C727 345 756 316 785.2 310.5C814.3 305 843.7 323 872.8 328.5C902 334 931 327 945.5 323.5L960 320L960 188L945.5 183.5C931 179 902 170 872.8 165.5C843.7 161 814.3 161 785.2 169.2C756 177.3 727 193.7 698 196.3C669 199 640 188 611 175.3C582 162.7 553 148.3 523.8 143C494.7 137.7 465.3 141.3 436.2 136.8C407 132.3 378 119.7 349 122.3C320 125 291 143 262 161C233 179 204 197 174.8 211.3C145.7 225.7 116.3 236.3 87.2 227.3C58 218.3 29 189.7 14.5 175.3L0 161Z" fill="#0066ff"></path><path d="M0 503L14.5 504C29 505 58 507 87.2 502.5C116.3 498 145.7 487 174.8 480.7C204 474.3 233 472.7 262 470.8C291 469 320 467 349 469.7C378 472.3 407 479.7 436.2 480.7C465.3 481.7 494.7 476.3 523.8 470C553 463.7 582 456.3 611 459C640 461.7 669 474.3 698 477C727 479.7 756 472.3 785.2 468.7C814.3 465 843.7 465 872.8 467.8C902 470.7 931 476.3 945.5 479.2L960 482L960 318L945.5 321.5C931 325 902 332 872.8 326.5C843.7 321 814.3 303 785.2 308.5C756 314 727 343 698 349.3C669 355.7 640 339.3 611 322.2C582 305 553 287 523.8 291.5C494.7 296 465.3 323 436.2 323.8C407 324.7 378 299.3 349 294.8C320 290.3 291 306.7 262 321.2C233 335.7 204 348.3 174.8 361C145.7 373.7 116.3 386.3 87.2 392.7C58 399 29 399 14.5 399L0 399Z" fill="#0059dd"></path><path d="M0 541L14.5 541C29 541 58 541 87.2 541C116.3 541 145.7 541 174.8 541C204 541 233 541 262 541C291 541 320 541 349 541C378 541 407 541 436.2 541C465.3 541 494.7 541 523.8 541C553 541 582 541 611 541C640 541 669 541 698 541C727 541 756 541 785.2 541C814.3 541 843.7 541 872.8 541C902 541 931 541 945.5 541L960 541L960 480L945.5 477.2C931 474.3 902 468.7 872.8 465.8C843.7 463 814.3 463 785.2 466.7C756 470.3 727 477.7 698 475C669 472.3 640 459.7 611 457C582 454.3 553 461.7 523.8 468C494.7 474.3 465.3 479.7 436.2 478.7C407 477.7 378 470.3 349 467.7C320 465 291 467 262 468.8C233 470.7 204 472.3 174.8 478.7C145.7 485 116.3 496 87.2 500.5C58 505 29 503 14.5 502L0 501Z" fill="#004cbb"></path></svg>